<svg width="49" height="49" viewBox="0 0 49 49" xmlns="http://www.w3.org/2000/svg" xmlns:xlink="http://www.w3.org/1999/xlink" fill="none" overflow="hidden"><path d="M8.40625 8.97168 8.40625 40.9314C8.40625 44.2956 15.7984 46.9514 24.8621 46.9514L24.8621 8.97168 8.40625 8.97168Z" fill="#3998C5" fill-rule="evenodd" clip-rule="evenodd"/><path d="M24.6875 46.9504 24.9499 46.9504C34.102 46.9504 41.4057 44.2946 41.4057 40.9304L41.4057 8.9707 24.6875 8.9707 24.6875 46.9504Z" fill="#59B3D8" fill-rule="evenodd" clip-rule="evenodd"/><path d="M41.4062 8.97122C41.4062 12.2483 34.0141 14.9913 24.9504 14.9913 15.8867 14.9913 8.40625 12.2466 8.40625 8.97122 8.40625 5.69588 15.7984 2.95117 24.8621 2.95117 33.9258 2.95117 41.4062 5.69588 41.4062 8.97122Z" fill="#FFFFFF" fill-rule="evenodd" clip-rule="evenodd"/><path d="M38.0585 8.61655C38.0585 10.8297 32.163 12.6003 24.9467 12.6003 17.7304 12.6003 11.75 10.8306 11.75 8.61655 11.75 6.40248 17.6455 4.63281 24.8618 4.63281 32.0781 4.63281 38.0585 6.40336 38.0585 8.61655Z" fill="#7FB900" fill-rule="evenodd" clip-rule="evenodd"/><path d="M35.2455 11.0066C37.0054 10.3026 37.9737 9.50183 37.9737 8.61655 37.9737 6.40336 32.0781 4.63281 24.8618 4.63281 17.6455 4.63281 11.75 6.40336 11.75 8.61655 11.75 9.50183 12.8058 10.3871 14.4782 11.0066 16.8539 10.0325 20.6379 9.50183 24.8618 9.50183 28.3816 9.42703 31.8901 9.93478 35.2455 11.0066Z" fill="#B7D332" fill-rule="evenodd" clip-rule="evenodd"/><path d="M34.1796 32.7091C31.5607 33.2521 31.3805 32.3571 31.3805 32.3571 34.1455 28.2291 35.3018 22.9896 34.3038 21.7092 31.5826 18.2112 26.8688 19.8656 26.7936 19.9087L26.7682 19.9131C26.1918 19.797 25.6066 19.7354 25.0188 19.7301 24.0295 19.6799 23.0524 19.9738 22.253 20.5626 22.253 20.5626 13.8488 17.0795 14.2398 24.9414 14.3273 26.6134 16.6234 37.5993 19.3664 34.2808 20.3689 33.0673 21.338 32.0421 21.338 32.0421 21.8261 32.3739 22.4139 32.5252 23 32.4689L23.0472 32.4293C23.0332 32.5877 23.0402 32.7461 23.0664 32.9027 22.3597 33.6947 22.567 33.8364 21.1543 34.1294 19.7251 34.426 20.5657 34.9531 21.1124 35.0913 22.3063 35.4811 23.614 35.0552 24.354 34.0353L24.312 34.2025C24.6925 35.0006 24.8438 35.8894 24.7494 36.7694 24.6584 37.5975 24.7144 38.4353 24.9129 39.244 25.1307 39.8406 25.3503 41.1844 27.2055 40.784 28.571 40.6476 29.6259 39.5159 29.6731 38.1361 29.7518 37.1091 29.9355 37.2561 29.9434 36.3409L30.0877 35.9062C30.2539 34.5122 30.1139 34.0626 31.0691 34.272L31.3018 34.2922C32.0409 34.3239 32.7792 34.199 33.4676 33.9253 34.6318 33.3823 35.3219 32.4742 34.1743 32.7127L34.1796 32.7091Z" fill="#336790" fill-rule="evenodd" clip-rule="evenodd"/><path d="M23.1235 25.8132C23.0055 25.7516 22.8769 25.7111 22.7448 25.6944 22.5559 25.653 22.3573 25.6812 22.1867 25.7736 22.1404 25.8053 22.1089 25.8545 22.0993 25.91 22.0748 26.086 22.3346 26.4169 22.6599 26.4626 22.6862 26.4661 22.7124 26.4679 22.7387 26.4679 22.9775 26.4679 23.1935 26.3271 23.2932 26.1097L23.302 26.0789C23.3133 26.0226 23.3011 25.9109 23.1235 25.8132Z" fill="#FFFFFF" fill-rule="evenodd" clip-rule="evenodd"/><path d="M30.3596 25.5389C30.2354 25.5134 30.1086 25.5108 29.9835 25.531 29.7114 25.5706 29.4482 25.6929 29.47 25.8548L29.4744 25.8707C29.5645 26.0704 29.7622 26.198 29.98 26.1972 30.0045 26.1972 30.0281 26.1963 30.0517 26.1928 30.1952 26.1672 30.3264 26.0951 30.4243 25.9868 30.5057 25.9138 30.5573 25.8108 30.5652 25.7008 30.552 25.6252 30.4786 25.5671 30.3596 25.5389Z" fill="#FFFFFF" fill-rule="evenodd" clip-rule="evenodd"/><path d="M31.1753 32.7734C31.2348 32.7575 31.2934 32.7382 31.3502 32.7153 31.3887 32.7496 31.4298 32.7804 31.4727 32.8094 32.3448 33.1755 33.3192 33.2107 34.2158 32.9098 34.2988 32.8913 34.3828 32.8807 34.4677 32.8763 34.1606 33.2186 33.7828 33.4888 33.3603 33.6683 32.4961 34.0344 31.5374 34.1057 30.6286 33.8716 30.5814 33.8434 30.5709 33.8232 30.57 33.8179 30.521 32.9626 30.8543 32.8684 31.1823 32.7769L31.1753 32.7734ZM33.8869 26.2614C33.2903 28.2264 32.448 30.107 31.3808 31.859 31.3415 31.8027 31.2934 31.7402 31.2321 31.6654L31.1762 31.5933 31.1604 31.5739C31.6861 30.6086 31.8418 29.4831 31.5978 28.4103 31.5427 28.0355 31.5164 27.6571 31.5173 27.2778 31.5322 26.9372 31.5689 26.5975 31.6266 26.2623 31.7018 25.854 31.7351 25.4395 31.7263 25.0241 31.7412 24.9731 31.7456 24.9194 31.7395 24.8666 31.1324 22.649 29.5527 20.8309 27.4482 19.9307 31.3651 18.968 33.3962 20.9304 34.0959 21.8262 34.6207 22.4976 34.5429 24.0728 33.8869 26.2605L33.8869 26.2614ZM30.6015 30.649C30.556 30.5373 30.4545 30.3551 30.3146 30.1017L30.3084 30.0911C29.7373 29.0607 28.3998 26.6477 29.1057 25.6322 29.4582 25.2468 29.9752 25.0576 30.4921 25.1262 30.7458 25.128 30.9986 25.1473 31.2496 25.1834 31.2453 25.5222 31.2129 25.861 31.1543 26.1945 31.0939 26.5483 31.0554 26.9055 31.0406 27.2646 31.0397 27.6703 31.0686 28.0759 31.128 28.4772 31.3231 29.3713 31.2286 30.305 30.8578 31.141 30.7589 30.9843 30.6732 30.8189 30.6023 30.6473L30.6015 30.649ZM23.2277 33.0365C23.2356 33.0277 23.2435 33.0171 23.2504 33.0074 23.3668 32.8288 23.5995 32.7725 23.784 32.8772L23.8234 32.8974C24.1689 33.0831 24.3097 33.5082 24.1426 33.8654 23.4613 34.8053 22.255 35.1951 21.1564 34.8334 20.9508 34.7885 20.7584 34.6944 20.5975 34.5571 20.7742 34.4401 20.9762 34.3679 21.1861 34.3441 22.3355 34.1074 22.4982 33.9517 22.8892 33.4536 22.9767 33.341 23.0851 33.2028 23.2303 33.04L23.2277 33.0365ZM20.2817 29.0695C20.3989 28.0601 20.4199 27.0419 20.3429 26.0291 21.0418 25.4861 21.9104 25.2133 22.7921 25.2608 23.2644 25.3339 23.6292 25.7158 23.6834 26.1936 24.224 28.7095 23.7543 29.7611 23.3755 30.6068 23.3029 30.7696 23.2277 30.9377 23.1656 31.104L23.1166 31.236C22.9898 31.5537 22.8839 31.8802 22.8008 32.2119 22.1247 32.2242 21.4757 31.947 21.0156 31.4481 20.419 30.811 20.1487 29.9319 20.2817 29.0677L20.2817 29.0695ZM18.0783 34.5949C17.2823 34.3309 16.3989 32.7223 15.5907 30.0744 15.0588 28.3883 14.6818 26.6565 14.464 24.9018 14.3634 22.8699 14.8568 21.4513 15.9327 20.6849 16.6893 20.1973 17.5771 19.9571 18.4746 19.9967 19.6047 20.0257 20.7234 20.2308 21.7914 20.603 21.7407 20.6479 21.6882 20.691 21.6384 20.7447 19.7901 22.6208 19.8557 25.8434 19.8592 25.9789L19.8592 25.9948C19.9388 26.9988 19.9204 28.0082 19.805 29.0087 19.6537 30.019 19.9738 31.0424 20.6727 31.7834 20.7645 31.8775 20.8634 31.9664 20.9675 32.0474 20.6648 32.3712 19.9441 33.157 19.1656 34.1004 18.7912 34.5509 18.4343 34.712 18.0783 34.5932L18.0783 34.5949ZM30.0836 33.8197C30.0382 34.4207 29.6935 37.3168 29.5133 38.3666 29.4591 39.5564 28.5197 40.5129 27.3379 40.5833 26.374 40.9098 25.3296 40.388 25.006 39.4182 24.9885 39.3672 24.9736 39.3152 24.9614 39.2633 24.6666 37.3643 24.5809 35.438 24.7077 33.5205 24.7086 33.4835 24.6998 33.4466 24.6832 33.4131 24.6753 33.3383 24.6605 33.2653 24.6386 33.1931 24.545 32.8834 24.3325 32.6246 24.0482 32.4733L24.0193 32.4583C23.7858 32.3263 23.505 32.3096 23.2574 32.4126 23.3335 32.0694 23.4385 31.7332 23.5715 31.4076L23.6204 31.2756C23.6764 31.1242 23.7438 30.9738 23.8164 30.8074 24.2021 29.945 24.7296 28.7659 24.1549 26.0942 24.0097 25.208 23.1778 24.6088 22.2979 24.7548 22.2655 24.761 22.2332 24.7672 22.2017 24.7742 21.5465 24.864 20.9176 25.0892 20.3543 25.4368 20.3972 23.8458 20.9683 22.3155 21.9769 21.0897 22.7799 20.2985 23.8767 19.8841 24.999 19.9457 26.7248 19.9492 28.3718 20.6734 29.5475 21.9441 30.2944 22.7264 30.8613 23.6628 31.2094 24.6897 29.9612 24.5392 29.1223 24.7645 28.7095 25.3576 27.8348 26.6213 29.2194 29.1249 29.8868 30.3287 30.0005 30.5338 30.1186 30.7458 30.1554 30.8356 30.3321 31.2483 30.5691 31.632 30.8595 31.9734 30.947 32.0755 31.0257 32.1855 31.0948 32.3008L31.0379 32.3166C30.6846 32.4126 30.0242 32.5991 30.0836 33.8179L30.0836 33.8197ZM34.9715 32.6757C34.8455 32.2867 34.2945 32.4029 34.1134 32.4407 32.2687 32.8235 31.7517 32.446 31.6441 32.3395 32.9404 30.3595 33.9052 28.178 34.4983 25.8839 35.0082 23.8308 34.9986 22.202 34.4764 21.5305 33.3603 20.0926 31.6537 19.2443 29.8405 19.2249 28.7908 19.1801 27.7412 19.3209 26.7396 19.6412L26.7178 19.6465 26.6828 19.6588 26.6513 19.6711C26.1142 19.5365 25.5632 19.4643 25.0095 19.4564 24.0237 19.4177 23.0519 19.6957 22.2332 20.2484 21.376 19.9245 20.4855 19.6993 19.5784 19.5769 18.2279 19.3103 16.8275 19.5646 15.6536 20.288 14.4369 21.1565 13.8727 22.7168 13.9821 24.9238 14.0354 25.9648 15.5495 34.257 17.9261 35.0552 18.5454 35.2215 19.1988 34.9593 19.5356 34.411 20.3823 33.3867 21.173 32.5366 21.3725 32.3254 21.7941 32.5622 22.2682 32.6898 22.7519 32.695 22.7527 32.7443 22.7562 32.7927 22.7632 32.842 22.6758 32.9414 22.597 33.0418 22.5139 33.1482 22.1964 33.5548 22.1212 33.6507 21.0917 33.8646 20.6744 33.9526 20.119 34.1145 20.1103 34.5307 20.1015 34.9469 20.6823 35.2083 21.0252 35.2937 22.1483 35.6606 23.3808 35.3605 24.2117 34.5175 24.1243 36.1666 24.2275 37.8201 24.5188 39.4455 24.7856 40.4425 25.6821 41.1377 26.709 41.143 26.9548 41.1412 27.2006 41.1131 27.4403 41.0594 28.8162 40.9503 29.9026 39.8397 29.9883 38.4537 30.1396 37.5737 30.402 35.4345 30.5131 34.3582 30.8289 34.4682 31.1613 34.5193 31.4945 34.5078 32.2004 34.514 32.9002 34.3811 33.5553 34.1171 34.2105 33.8021 35.1324 33.1667 34.9715 32.6757Z" fill="#FFFFFF" fill-rule="evenodd" clip-rule="evenodd"/></svg>