<svg width="49" height="49" viewBox="0 0 49 49" xmlns="http://www.w3.org/2000/svg" xmlns:xlink="http://www.w3.org/1999/xlink" fill="none" overflow="hidden"><path d="M43.0178 36.8547 42.0605 36.8547 42.0605 34.9715 43.0178 34.9715C45.0422 34.9715 46.692 33.3445 46.692 31.3483L46.692 12.105C46.692 10.1078 45.0422 8.48087 43.0178 8.48087L6.82907 8.48087C4.80277 8.48087 3.15289 10.1078 3.15289 12.105L3.15289 31.3453C3.15289 33.3425 4.80277 34.9695 6.82907 34.9695L7.78442 34.9695 7.78442 36.8537 6.82907 36.8537C3.74764 36.8547 1.24219 34.385 1.24219 31.3483L1.24219 12.105C1.24219 9.06931 3.74764 6.59766 6.82907 6.59766L43.0178 6.59766C46.0973 6.59766 48.6027 9.06931 48.6027 12.105L48.6027 31.3453C48.6027 34.385 46.0973 36.8547 43.0178 36.8547Z" fill="#ECBC11" fill-rule="evenodd" clip-rule="evenodd"/><path d="M12.6969 41.5548C14.1275 41.5548 15.2903 40.4111 15.2903 38.9974L15.2883 33.1043C15.2883 31.6926 14.1275 30.5469 12.6949 30.5469 11.2644 30.5488 10.1016 31.6926 10.1016 33.1062L10.1035 38.9974C10.1055 40.413 11.2664 41.5548 12.6969 41.5548Z" fill="#ECBC11" fill-rule="evenodd" clip-rule="evenodd"/><path d="M20.8493 41.5553C22.2788 41.5553 23.4426 40.4115 23.4426 38.9979L23.4407 23.8689C23.4407 22.4543 22.2788 21.3125 20.8493 21.3125 19.4148 21.3125 18.2539 22.4563 18.2539 23.8689L18.2559 38.9979C18.2559 40.4115 19.4187 41.5553 20.8493 41.5553Z" fill="#ECBC11" fill-rule="evenodd" clip-rule="evenodd"/><path d="M37.15 41.4807C38.5806 41.4807 39.7434 40.337 39.7434 38.9233L39.7414 17.4978C39.7414 16.0871 38.5806 14.9404 37.1481 14.9404 35.7175 14.9414 34.5547 16.0871 34.5547 17.4978L34.5567 38.9253C34.5586 40.337 35.7195 41.4807 37.15 41.4807Z" fill="#ECBC11" fill-rule="evenodd" clip-rule="evenodd"/><path d="M29.0006 41.5548C30.4312 41.5548 31.594 40.411 31.594 38.9974L31.592 27.7595C31.592 26.3498 30.4312 25.2031 28.9986 25.2031 27.5681 25.2031 26.4062 26.3479 26.4062 27.7595L26.4072 38.9974C26.4072 40.411 27.5681 41.5548 29.0006 41.5548Z" fill="#ECBC11" fill-rule="evenodd" clip-rule="evenodd"/></svg>