<svg width="49" height="49" viewBox="0 0 49 49" xmlns="http://www.w3.org/2000/svg" xmlns:xlink="http://www.w3.org/1999/xlink" fill="none" overflow="hidden"><path d="M12.6406 38.3188 36.7021 38.3188 36.7021 13.3438 12.6406 13.3438 12.6406 38.3188Z" fill="#FFFFFF" fill-rule="evenodd" clip-rule="evenodd"/><path d="M15.0515 14.9111C15.0767 14.9084 15.1036 14.9084 15.1288 14.9111L18.3112 14.9111C18.4525 14.9138 18.5892 14.9957 18.6593 15.1172L24.0581 24.7436C24.0851 24.7913 24.1022 24.8444 24.1094 24.8984 24.1157 24.8444 24.1337 24.7913 24.1597 24.7436L29.5459 15.1172C29.6188 14.9921 29.7618 14.9102 29.9066 14.9111L33.089 14.9111C33.3706 14.9138 33.5819 15.2684 33.4497 15.5186L28.1805 24.9497 33.4497 34.3691C33.5945 34.6202 33.3787 34.9919 33.089 34.9892L29.9066 34.9892C29.7591 34.9883 29.6152 34.9001 29.5459 34.7696L24.1597 25.1441C24.1337 25.0964 24.1157 25.0433 24.1094 24.9893 24.1022 25.0433 24.0851 25.0964 24.0581 25.1441L18.6593 34.7696C18.5919 34.8965 18.4552 34.9838 18.3112 34.9892L15.1288 34.9892C14.8401 34.9919 14.6233 34.6202 14.7681 34.3691L20.0374 24.9497 14.7681 15.5186C14.6422 15.2909 14.796 14.9597 15.0515 14.9111ZM14.8842 5.53125C13.7058 5.53395 12.5527 6.20265 11.959 7.22325L2.7347 23.2577C2.15093 24.281 2.15093 25.6193 2.7347 26.6426L11.959 42.677C12.5527 43.6976 13.7058 44.3672 14.8842 44.369L33.3346 44.369C34.5129 44.3672 35.6652 43.6976 36.2588 42.677L45.484 26.6426C46.0678 25.6193 46.0678 24.281 45.484 23.2577L36.2588 7.22325C35.6652 6.20265 34.5129 5.53305 33.3346 5.53125L14.8842 5.53125Z" fill="#3498DB" fill-rule="evenodd" clip-rule="evenodd"/></svg>